<?xml version="1.0" encoding="UTF-8"?> <svg xmlns="http://www.w3.org/2000/svg" id="Слой_1" data-name="Слой 1" viewBox="0 0 363.38 67.14"> <defs> <style>.cls-1{fill:#1fb4b3;}</style> </defs> <title>Безымянный-2</title> <path class="cls-1" d="M9.28,22c.05-3.52,1.68-5.4,4.76-5.85h6.8a9.8,9.8,0,0,1,7.94,3.72c2.87,3.62,2.58,9.23-1.69,12,8.23,3.22,8,14.19.64,17.86a15,15,0,0,1-6.6,1.19H9.28Zm6.55,22.63c2.08,0,5.55.25,7.59-.35,5.06-1.34,4-7.29-.75-8.38-1.39-.3-4.71-.55-5.7,1-1.59-3.72-.85-6.3,4.41-7.29a3.51,3.51,0,0,0-.29-6.95,31.4,31.4,0,0,0-5.26-.15Z"></path> <path class="cls-1" d="M88.43,20.79a17.54,17.54,0,0,1,5.26,12.9,17.29,17.29,0,0,1-5.16,12.75,17.08,17.08,0,0,1-12.6,5.21A17.13,17.13,0,0,1,63,46.29a17.79,17.79,0,0,1-5.11-12.75,16.84,16.84,0,0,1,1.34-6.84c3.23-6.45,15.13-5.16,13.05,2.88-2.53-3-8-1.64-7.74,4.86a10.68,10.68,0,0,0,4.07,8.28,11,11,0,0,0,7.29,2.63A10.66,10.66,0,0,0,83.82,42a11.54,11.54,0,0,0,3.27-8.34,11.61,11.61,0,0,0-3.27-8.33,10.91,10.91,0,0,0-8-3.37,11.4,11.4,0,0,0-4,.64c-2.38-2.18-6.79-2.33-10-.35a18.36,18.36,0,0,1,5-4.31,17.61,17.61,0,0,1,9-2.43,17.06,17.06,0,0,1,12.55,5.3"></path> <path class="cls-1" d="M126.36,16.13V37.76c0,4.37,1.34,7.39,5.56,7.39s6-2.77,6-7.54V22.13c0-3.62,1.39-6.15,6.55-6V36.67c0,8.63-2.53,14.79-12.5,14.79s-12.21-6.11-12.21-14.79V16.13Z"></path> <path class="cls-1" d="M205.66,50.81h-7.89l-.89-1.14a18.17,18.17,0,0,1-21.29-3.38c-11.26-11.75-2.92-30.85,12.85-30.85,15.58,0,23.62,18.85,13.3,30.31ZM188.39,21.89c-11.46,0-14.93,14.58-7.24,20.83a11.56,11.56,0,0,0,11.71,1.74c-2.09-2.68-4.72-6.45-7.94-4.22A4.65,4.65,0,0,1,189,34.69c2.43-.4,5.31,1.14,7.29,3.91l1.29,1.84c5.21-7.84,0-18.55-9.23-18.55"></path> <path class="cls-1" d="M239.19,16.13V37.76c0,4.37,1.34,7.39,5.56,7.39s6-2.77,6-7.54V22.13c0-3.62,1.39-6.15,6.55-6V36.67c0,8.63-2.53,14.79-12.5,14.79s-12.21-6.11-12.21-14.79V16.13Z"></path> <path class="cls-1" d="M304.91,22.63h-13.4v7.69h13.4c-.15,3.08-1.44,6.35-5.46,6.35h-7.94v7.69h13.4v6.5h-20V22.13c0-3.82,2.43-6,5.71-6h14.29Z"></path> <path class="cls-1" d="M354.1,16.13c0,4.07-2.53,6.55-5.41,6.55h-4V50.86H338V22.68h-7.69V16.13Z"></path> </svg> 