<?xml version="1.0" encoding="UTF-8"?> <svg xmlns="http://www.w3.org/2000/svg" id="Слой_1" data-name="Слой 1" viewBox="0 0 113.31 100.89"> <defs> <style>.cls-1,.cls-2{stroke:#000;stroke-miterlimit:10;}.cls-1{stroke-width:0.25px;}.cls-2{stroke-width:0.75px;}</style> </defs> <title>noun_Flower_973369</title> <path class="cls-1" d="M7.9,72.67l-7.85,22A.88.88,0,0,0,.57,95.8a.88.88,0,0,0,1.12-.52l10.83-30,.85-2.32,6.55-17.73c6.88,2.12,14-.79,16.25-6.77l0-.1,5.34-22a.48.48,0,0,0,0-.12.55.55,0,0,0,0-.18.75.75,0,0,0,0-.16.52.52,0,0,0-.06-.16.61.61,0,0,0-.1-.14.52.52,0,0,0-.1-.11l-.16-.1-.1-.06-.15-.06a9,9,0,0,0-3.62-.54,61,61,0,0,0-2.9-9.09.91.91,0,0,0-.51-.49.9.9,0,0,0-.7,0,61.91,61.91,0,0,0-7.72,4.71,26.46,26.46,0,0,0-3.66-1.68h-.11l-.18,0-.16,0-.16,0a.53.53,0,0,0-.15.08l-.13.09a.49.49,0,0,0-.11.14.7.7,0,0,0-.08.1L10.39,28.77l0,.09c-2.21,6,1.34,12.86,7.94,15.72L8.76,70.36Zm31.75-56-2.18,9a21.51,21.51,0,0,0-3.44-8A6.41,6.41,0,0,1,39.65,16.68Zm-6.6-9.54A51.67,51.67,0,0,1,35.49,15,7.26,7.26,0,0,0,33,16.22a25.28,25.28,0,0,0-6-5.4A59.75,59.75,0,0,1,33.05,7.14ZM12,29.51l9.87-19.42A24.07,24.07,0,0,1,32.17,18,19.54,19.54,0,0,1,36,27.89a16.71,16.71,0,0,1-.29,4.85v0l-1.23,5.09c-2,5.28-8.63,7.72-14.82,5.43S10,34.82,12,29.51Z"></path> <path class="cls-2" d="M41.33,59.19,31.36,53a.6.6,0,0,0-.47-.06L27,54.28a.53.53,0,0,0,.34,1L31,54,40.65,60l8.83,26a1,1,0,0,1-.6,1.21L27.55,94.43a.94.94,0,0,1-1.21-.59l-8.83-26,3.85-10.2a.5.5,0,0,0-.29-.68.51.51,0,0,0-.68.29L16.44,67.65a.65.65,0,0,0,0,.34l8.88,26.14a2,2,0,0,0,2.55,1.26L49.2,88.14a2,2,0,0,0,1.26-2.55L41.6,59.49C41.5,59.36,41.46,59.26,41.33,59.19Z"></path> <path class="cls-2" d="M4,59.43A14.18,14.18,0,0,1,20.3,53.88c3.88,1.53,4.9,4.37,5.12,5.52,0,.27.1.47.12.69A3.77,3.77,0,0,0,25,63.5a3.67,3.67,0,0,0,4.69,2.32,3.7,3.7,0,1,0-2.38-7,4.45,4.45,0,0,0-.82.39v-.05a9,9,0,0,0-5.78-6.31,13.78,13.78,0,0,0-10.5.33,17.21,17.21,0,0,0-7.08,5.64C.75,62.25.5,66.3,2.48,69.15,3.79,71.05,7.24,74,15.59,71.9h.05a.53.53,0,0,0-.29-1c-5.68,1.37-10,.56-12-2.34C1.56,66.11,1.85,62.55,4,59.43Zm23.7.38a2.65,2.65,0,1,1,1.7,5A2.61,2.61,0,0,1,26,63.16l0-.1a3.77,3.77,0,0,0,.64-2.56A2.38,2.38,0,0,1,27.68,59.81Z"></path> <path class="cls-2" d="M36.8,73.35,31,85.14a.46.46,0,0,0,.21.63.57.57,0,0,0,.36,0,.51.51,0,0,0,.27-.24l5.82-11.81a.46.46,0,0,0-.22-.62A.5.5,0,0,0,36.8,73.35Z"></path> <path class="cls-2" d="M32.77,76.4A2.92,2.92,0,1,0,31,80.1,2.94,2.94,0,0,0,32.77,76.4ZM28.18,78a2,2,0,1,1,2.51,1.24A2,2,0,0,1,28.18,78Z"></path> <path class="cls-2" d="M35.88,82.5a2.92,2.92,0,1,0,1.83-3.7A2.94,2.94,0,0,0,35.88,82.5Zm4.59-1.56A2,2,0,1,1,38,79.7,2,2,0,0,1,40.47,80.94Z"></path> </svg> 