<?xml version="1.0" encoding="UTF-8"?> <svg xmlns="http://www.w3.org/2000/svg" id="Слой_1" data-name="Слой 1" viewBox="0 0 113.31 100.89"> <defs> <style>.cls-1{stroke:#000;stroke-miterlimit:10;stroke-width:0.75px;}</style> </defs> <title>noun_Flower_973369</title> <path class="cls-1" d="M24.79,33.35a.33.33,0,0,0-.23.15,18.33,18.33,0,0,0-2.28,3.61,19.07,19.07,0,0,0-3.34-2.66.46.46,0,0,0-.28-.06.4.4,0,0,0-.3.26,18.27,18.27,0,0,0-.92,3.62A19.14,19.14,0,0,0,14,37l-.15,0a.38.38,0,0,0-.34.38,14.13,14.13,0,0,0,2.8,9.78,14.44,14.44,0,0,0,8.22,5.54V63.43a8.16,8.16,0,0,0-2.52-3,8.31,8.31,0,0,0-5.14-1.7h0a.37.37,0,0,0-.36.39.3.3,0,0,0,0,.1,7.88,7.88,0,0,0,3,4.47,8.25,8.25,0,0,0,5,1.71v8.73a.38.38,0,0,0,.33.43.37.37,0,0,0,.42-.33.17.17,0,0,0,0-.1V61.82h0a8.37,8.37,0,0,0,5.18-1.7,8,8,0,0,0,3-4.46.39.39,0,0,0-.26-.48.32.32,0,0,0-.14,0,8.21,8.21,0,0,0-5.14,1.69,7.83,7.83,0,0,0-2.7,3.47V52.64a14.5,14.5,0,0,0,8.24-5.54,14.09,14.09,0,0,0,2.78-9.78.38.38,0,0,0-.38-.38h0a.09.09,0,0,0-.07,0,19.14,19.14,0,0,0-3.48,1.3,18.27,18.27,0,0,0-.92-3.62.39.39,0,0,0-.42-.26.44.44,0,0,0-.16.06,19.47,19.47,0,0,0-3.33,2.63,17.35,17.35,0,0,0-2.3-3.6.39.39,0,0,0-.37-.13Zm.07,1A14.09,14.09,0,0,1,27,37.78a.06.06,0,0,0,0,0h0s0,0,0,.06a13,13,0,0,1,.9,4v.11c0,.32,0,.64,0,1s0,.58,0,.86V44c0,.06,0,.12,0,.18A13.38,13.38,0,0,1,26.6,49l-.06.11-.22.44,0,.05-.25.44-.25.4-.13.18c-.29.43-.57.8-.8,1.08a13.26,13.26,0,0,1-1.57-2.25c-.07-.12-.13-.24-.19-.37A1.19,1.19,0,0,0,23,49c-.05-.11-.09-.23-.14-.34v0c-.05-.11-.1-.22-.14-.33s-.13-.32-.19-.49A13.62,13.62,0,0,1,22,45.58c0-.18-.06-.35-.08-.53a2.48,2.48,0,0,1,0-.27c0-.13,0-.27,0-.4s0-.33,0-.49,0-.56,0-.86,0-.7,0-1v-.07a13,13,0,0,1,.91-4v0s0,0,0,0v0a15.21,15.21,0,0,1,2.09-3.47Zm-5.92,1a15.89,15.89,0,0,1,3,2.52,13.83,13.83,0,0,0-.8,3.14,13.82,13.82,0,0,0-3-2.36,14.51,14.51,0,0,1,.77-3.3Zm11.87,0a14.94,14.94,0,0,1,.75,3.29,13.48,13.48,0,0,0-3,2.36,13.44,13.44,0,0,0-.53-2.43c-.05-.17-.11-.33-.17-.49a2.25,2.25,0,0,0-.08-.24,15.24,15.24,0,0,1,3-2.49Zm-16.6,2.48a14.76,14.76,0,0,1,4,1.73l.21.14.26.18.19.14.28.21.18.14.3.25.15.13.34.31.12.12c.27.27.54.55.81.87q0,.47,0,1c0,.57,0,1.12.09,1.64,0,.19,0,.36.05.54s0,.2,0,.3a2.29,2.29,0,0,0,.07.36,5.89,5.89,0,0,0,.11.63s0,0,0,.06c.05.2.1.39.16.58a2.76,2.76,0,0,0,.08.27c.06.2.11.4.18.59v0c.15.42.32.81.49,1.18l0,.07,0,.08c.12.26.25.5.38.73s.09.16.14.24a13.1,13.1,0,0,0,.89,1.32,13.28,13.28,0,0,1-6.92-5,12.87,12.87,0,0,1-2.67-8.8Zm21.31,0a12.85,12.85,0,0,1-2.66,8.8,13.33,13.33,0,0,1-7,5l.45-.63c.21-.32.44-.69.66-1.09.1-.18.19-.36.29-.56s.18-.41.28-.63l.15-.38a2.49,2.49,0,0,0,.11-.29l.1-.25a1.72,1.72,0,0,0,.07-.21c0-.12.08-.25.11-.38s.13-.42.19-.64A14.92,14.92,0,0,0,28.71,43q0-.51,0-1c.27-.31.53-.59.8-.85a1.79,1.79,0,0,1,.14-.13c.1-.1.2-.2.31-.29l.16-.14.3-.25.18-.14c.24-.19.48-.36.71-.52l.13-.07a14.43,14.43,0,0,1,4.11-1.8ZM32.54,56A6.53,6.53,0,0,1,30,59.52,6.9,6.9,0,0,1,25.86,61a6.31,6.31,0,0,1,2.54-3.54A6.78,6.78,0,0,1,32.54,56ZM17.39,59.56A6.76,6.76,0,0,1,21.52,61a6.38,6.38,0,0,1,2.55,3.52,6.83,6.83,0,0,1-4.15-1.48,6.38,6.38,0,0,1-2.53-3.52Z"></path> <path d="M5,5.45a5,5,0,0,0-5,5v80a5,5,0,0,0,5,5H43a5,5,0,0,0,5-5v-80a5,5,0,0,0-5-5Zm0,2h5.38l2.71,5.43a1,1,0,0,0,.91.57H34a1,1,0,0,0,.91-.57l2.71-5.43H43a3,3,0,0,1,3,3v80a3,3,0,0,1-3,3H5a3,3,0,0,1-3-3v-80a3,3,0,0,1,3-3Zm7.62,0H35.38l-2,4H14.62Z"></path> </svg> 