<?xml version="1.0" encoding="UTF-8"?> <svg xmlns="http://www.w3.org/2000/svg" id="Слой_1" data-name="Слой 1" viewBox="0 0 126.25 117.85"> <title>noun_Flower_973369</title> <path d="M117.57,78.76c-2.69-7.3-7.45-10.55-15.44-10.55a17,17,0,0,0-5.81,1l-.64.23.28-.62a11.92,11.92,0,0,0,.6-8c-.35-1.43-1.57-5.17-2.86-9.13l-.2-.62c-.59-1.79-1.18-3.61-1.68-5.21l-.13-.4.42,0c.32,0,.64,0,1,0,1.56,0,2.46-.39,2.82-1.24a18.11,18.11,0,0,0,.71-8.16l0-.12C96.29,34.53,95.19,34,92.49,34a4.77,4.77,0,0,0-3.34,1.11l-.12.05-10.6,2.09.85-.72c1.34-1.13,3.82-3.28,5.41-5l.11-.07.07,0a23.21,23.21,0,0,1,3.49-1.35h.09l.08,0,.29.14a5.89,5.89,0,0,0,3.75.73c2.72-.32,4.86-3.38,5.7-6.09l.07-.23.23,0c1.45.13,2.64.25,2.94.29l.06.29h0V25h.25l.11,0,.08,0,.1,0,.07,0,.09-.06.06-.05.09-.08,0-.06a.7.7,0,0,1,.06-.09l0-.08,0-.09a.16.16,0,0,0,0-.09l.29,0h0l-.27-.11,0-.09c0-.79-.54-1.44-1.21-2.2-.23-.25-.56-.63-.71-.84l0-.06V20.9c-.24-2.81-2-6.3-6-6.88-5-.71-9.06,2-10.73,7.15l-.07.23-.24,0-.4,0-.41,0-.11,0h-.2c-9-.7-18.51,2.74-25.63,9.22C48.64,38,46.73,45.88,48.45,50a3.86,3.86,0,0,0,1.15,1.38l.62.51H44.85l1.49-17a1,1,0,0,0-.26-.77,1,1,0,0,0-.74-.33H38.91l-2.18-13a1.09,1.09,0,0,0-.07-.24,9.47,9.47,0,0,0-8.75-5.66C25.16,14.81,22.78,16,22,17.62a2.91,2.91,0,0,0-.28,1.05l0,.3-.3,0c-2.58-.32-5,.66-5.89,2.37a3.1,3.1,0,0,0,.44,3.41l.22.29-.34.15A5.21,5.21,0,0,0,14,26.41a3.82,3.82,0,0,0-.95,4.42c.66,1.23,2.43,2.56,7.1,1.82h.1l1.81,1-.61.22a1,1,0,0,0-.64.85L19.22,52.82a1,1,0,0,0,.26.76,1,1,0,0,0,.74.33h9.12l-.21.41c-.07.15-.14.29-.19.43L27.22,59.6a.78.78,0,0,0,0,.23V60l-.11.07C13.82,69.65,7.41,82.05,8.8,86.37A2.26,2.26,0,0,0,11,88h5l-.06.34c-.07.43-.13.87-.17,1.3a13.13,13.13,0,0,0,3.32,10.11,13,13,0,0,0,9.71,4.17A15.73,15.73,0,0,0,44.18,89.83a14.54,14.54,0,0,0,0-1.52V88H77.13A10.21,10.21,0,0,0,83,86.49l.27-.18.14.29a2.73,2.73,0,0,0,.4.56,2.76,2.76,0,0,0,2.08.86h1.88l-.06.34c-.08.46-.14.89-.17,1.29a12.89,12.89,0,0,0,13,14.29,15.72,15.72,0,0,0,15.34-14.11,13.2,13.2,0,0,0-2.59-9.24l-.35-.46h3.69a1,1,0,0,0,.93-1.36ZM96.16,24.84c-.85,2.24-2.46,4-3.83,4.14a4.41,4.41,0,0,1-.6,0,4,4,0,0,1-2-.54,3.35,3.35,0,0,0-1-.4,3.9,3.9,0,0,0-1.87.36l-.46.16.08-.48a6.93,6.93,0,0,0,0-2.27l0-.38.38.05a11.61,11.61,0,0,0,1.72.14,6.1,6.1,0,0,0,2.43-.8,5.31,5.31,0,0,1,1.52-.61h0c.65,0,1.79.07,3.39.2l.39,0ZM85.55,22.89s0-.09,0-.14c1.16-4.83,4.45-7.36,8.8-6.74h0c3.84.54,4.28,4.42,4.33,5.19a2.07,2.07,0,0,0,.44,1l.37.51-.63-.06c-2.18-.2-5.06-.44-6.38-.44a6,6,0,0,0-2.39.79,5.05,5.05,0,0,1-1.57.62,14.46,14.46,0,0,1-2.82-.37l-.34-.08ZM50.63,42.65A27.77,27.77,0,0,1,58.25,32h0c6.82-6.2,15.93-9.45,24.35-8.68a2.54,2.54,0,0,1,1.61,1.59,4.94,4.94,0,0,1-.42,4.65c-1.93,2.36-8,7.35-9.6,8.51l-.12,0-1.76.35a1,1,0,0,0-.79,1.18,1,1,0,0,0,1.17.79l16.59-3.27.09.06c.45.28,1.18.86,1.12,1.53s-1.47,1.41-2.2,1.71l-.11,0-.11,0a6.34,6.34,0,0,0-5-.06c-3.12,1.39-11.59,4.74-13.85,4.9H69a2.85,2.85,0,0,1-1.9-.66,2.7,2.7,0,0,1-.85-2c-.09-1.59,4-8.9,7.84-12.17a1,1,0,0,0,.36-.68,1,1,0,0,0-.24-.73,1,1,0,0,0-.68-.35.94.94,0,0,0-.73.23C69,32.18,64.11,40.05,64.27,42.77a6.38,6.38,0,0,0,.1.81l.09.43-.61-.13C61.68,43.3,54.91,42.24,51,43l-.49.1Zm28.28,8.78a30.68,30.68,0,0,0-6.78-4.24l-.65-.33.69-.21c4.11-1.22,10.2-3.79,10.88-4.07l.3-.13.09.31c2.81,9.09,4.6,15,5.18,17A9.57,9.57,0,0,1,87,68.3l-1.45,2.12-.3.43c-.73,1.07-1.36,2-2.81,4-2.23,3.17-3.25,4.62-6.74,4.88l-.29,0,0-.3a3.47,3.47,0,0,0-.48-1.6,7.28,7.28,0,0,0-4.18-2.69l-.37-.11.21-.33c.8-1.19,7.79-11.66,9.24-14C81.55,57.93,82.67,55.3,78.91,51.43Zm-29-5.8v-.1l.07-.07c1.17-1.19,9.07-.79,13.34.36h.08c3.54.72,12.38,5.26,14.06,7,2.83,2.92,2.09,4.51.65,6.86C76.81,61.82,70.63,71.12,68,75l-.14.21a1,1,0,0,0-.08,1,1,1,0,0,0,.78.58c.94.13,3.81.8,4.63,2.16a1.45,1.45,0,0,1,.2.56l0,.33H62.93v-.3a8.15,8.15,0,0,1,.79-3.32h0C66.56,70,72.36,59.25,73,58a1,1,0,0,0,0-.95,1,1,0,0,0-.77-.54c-.66-.09-6.47-.86-9.46-1.53C59.1,54.2,51,50.79,50.3,49.25A7.32,7.32,0,0,1,49.92,45.63Zm12,29.73a10.22,10.22,0,0,0-1,4.17v.29h-1a3.51,3.51,0,0,1-3.37-2.76c-1.19-3.74,1-9.93,8.55-15.33l.08,0a1,1,0,0,0,.67-.9L66,60.6l1-2.79.24,0,3,.44.41.06-.2.36C68.61,62,64.25,70.25,61.91,75.36Zm-25-41.61H27v.19l-4.66-2.47L35,22.54Zm-10-8.26c-1.58-1.53-2.22-2.8-1.7-3.4.86-1,4.1-1.1,6.41-.18l.49.2-5,3.55Zm-3.12-7c.43-.91,2.19-1.6,4.1-1.6a7.68,7.68,0,0,1,6.34,3.41l.15.23-.49.34-.16-.1c-2.68-1.64-7-2-9.15-.69l-.23.13-.19-.28A1.31,1.31,0,0,1,23.8,18.47Zm-6.53,3.75c.59-1.14,3.37-1.93,5.69-.75l.23.1-.05.25a3.35,3.35,0,0,0,.28,2.36l.2.43-.47,0a8.26,8.26,0,0,0-3.38.51l-.12,0-.12-.07C17.72,24.07,16.87,23,17.27,22.22Zm1.14,8.61-.72,0c-1.51,0-2.54-.34-2.88-1a2,2,0,0,1,.64-2.09,3.25,3.25,0,0,1,1.72-.95l.48-.1-.14.46a2,2,0,0,0-.11.61,3.35,3.35,0,0,0,1.19,2.52l.46.45Zm2.78-1L21,29.71c-1.21-.8-1.64-1.46-1.62-1.81s.36-.62.92-.87a6.63,6.63,0,0,1,4.27-.19l.59.16Zm.12,22.08,1.41-16.14H44.25L42.83,51.9Zm9.52,3.52a2.41,2.41,0,0,1,2-1.52l21.1,0a50.75,50.75,0,0,0,8.43,3c.57.13,1.3.27,2.23.44l.34.06-.8,2.26H29.29ZM42.18,89.65h0a13.69,13.69,0,0,1-13.35,12.28,10.89,10.89,0,0,1-11-12.1,12.81,12.81,0,0,1,.25-1.59L18.1,88H42.21v.29C42.22,88.83,42.21,89.26,42.18,89.65Zm41.23-6.19-.18.19A7.57,7.57,0,0,1,77.14,86H10.82l-.08-.18a3.09,3.09,0,0,1-.06-1.58C11.29,80,16.53,70.22,28,61.8l.08,0H61.8l-.57.5c-6.6,5.82-7.72,11.78-6.57,15.41a5.54,5.54,0,0,0,5.28,4.17H74.46c5.58,0,7.11-2.18,9.65-5.78C85.62,73.91,86.26,73,87,71.86l.42-.62c.34-.5.73-1.07,1.24-1.8a11.57,11.57,0,0,0,1.86-10.23c-.91-3.21-4.46-14.67-5.16-16.94l-.12-.4.42,0a5.16,5.16,0,0,1,1.93.52,1,1,0,0,0,.8.09c.65-.21,3.87-1.33,4.08-3.62a3.17,3.17,0,0,0-.87-2.4l-.35-.41.53-.07a6.87,6.87,0,0,1,.69,0,6.41,6.41,0,0,1,1.91.19l.16,0,.08.39a17.39,17.39,0,0,1-.52,6.67l0,.15-.15,0a9.78,9.78,0,0,1-2.53,0c-.48,0-.83-.07-1.11-.07h-.14l-.1,0-.2.08-.23-.21h0l.16.24-.23.2-.06.07,0,.07a.59.59,0,0,0,0,.08.69.69,0,0,0,0,.1l0,.09a.51.51,0,0,0,0,.09.49.49,0,0,0,0,.12v.1a.28.28,0,0,0,0,.08.36.36,0,0,0,0,.11c.64,2.08,1.51,4.75,2.35,7.33l.1.33c1.11,3.4,2.49,7.64,2.85,9A10.08,10.08,0,0,1,93,70c-1.73,2.5-4.28,6.15-7.38,10.54A29.65,29.65,0,0,1,83.41,83.46Zm30.48,6.19a13.68,13.68,0,0,1-13.34,12.28,10.89,10.89,0,0,1-11-12.1,13.24,13.24,0,0,1,.3-1.82l0-.15.14,0c1.26-.5,2.58-1.84,4.12-3.4,1.87-1.9,4.19-4.25,5.91-4.25l10,0h.11l.08.07A11,11,0,0,1,113.89,89.65Zm.81-11.53c-3,0-9.23,0-14.68,0-2.57,0-5.1,2.58-7.34,4.85-1.86,1.89-3.06,3-3.68,3H85.87a.8.8,0,0,1-.6-.2,1.7,1.7,0,0,1-.27-1v-.11l.07-.09a34.52,34.52,0,0,0,2.22-2.92q3.6-5.1,5.9-8.41l.07-.07.1-.07a14.27,14.27,0,0,1,8.77-2.92c6.55,0,10.38,2.24,12.83,7.5l.19.4Z"></path> </svg> 