<?xml version="1.0" encoding="UTF-8"?> <svg xmlns="http://www.w3.org/2000/svg" id="Слой_1" data-name="Слой 1" viewBox="0 0 113.31 100.89"> <title>noun_Flower_973369</title> <path d="M36.73,47.91a4.06,4.06,0,0,0-.5,8.08V53.92a2,2,0,1,1,2.46-2.45h2.07A4.06,4.06,0,0,0,36.73,47.91Z"></path> <path d="M21.1,38.79a4.06,4.06,0,0,0-.5,8.09V44.8a2,2,0,1,1,2.45-2.45h2.07A4,4,0,0,0,21.1,38.79Z"></path> <path d="M54.21,95.54a1,1,0,0,0,1-.84l7.6-41a1,1,0,0,0-.22-.84,1,1,0,0,0-.78-.36h-2V33.73A28.38,28.38,0,1,0,3,33.73V52.47H1a1,1,0,0,0-1,1,1.1,1.1,0,0,0,0,.18l7.6,41a1,1,0,0,0,1,.84Zm1.68-15.72H47.63v-4h9ZM5.08,33.73a26.34,26.34,0,1,1,52.67,0V52.47H48.4l.34-.72a4.83,4.83,0,0,0,.34-3.3l-.1-.39.36-.18A10.52,10.52,0,0,0,52,46l2.14-2.15a1,1,0,0,0,0-1.44L52,40.24a10.12,10.12,0,0,0-1.87-1.44l-.29-.17.06-.34a4.83,4.83,0,0,0,0-1.61l-.48-2.8,2-2a4.89,4.89,0,0,0,.09-6.9,5,5,0,0,0-2.79-1.43L46,23.17,44.7,20.62a4.88,4.88,0,0,0-8.76,0l-1.25,2.55-2.81.4A4.88,4.88,0,0,0,29,25.05l-.28.3-.35-.22a10.06,10.06,0,0,0-5.36-1.54H20a1,1,0,0,0-1,1v3a9.81,9.81,0,0,0,.25,2.22l.09.4-.37.17a4.86,4.86,0,0,0-2.36,2.29l-1.26,2.55-2.81.4a4.9,4.9,0,0,0-4.13,5.54A5,5,0,0,0,9.84,44l2,2-.48,2.8a4.77,4.77,0,0,0,.43,3l.35.73H5.08ZM43.64,54.92l.57,3.33a2.84,2.84,0,0,1-4.12,3l-3-1.57a1,1,0,0,0-1,0l-3,1.57a2.83,2.83,0,0,1-4.12-3l.57-3.33a1,1,0,0,0-.3-.9L26.9,51.66a2.83,2.83,0,0,1,1.57-4.84l3.34-.49a1,1,0,0,0,.77-.56l1.5-3a2.78,2.78,0,0,1,1.63-1.43,2.87,2.87,0,0,1,2.17.14,2.93,2.93,0,0,1,1.29,1.29l1.49,3a1,1,0,0,0,.77.56l3.35.49A2.85,2.85,0,0,1,47.18,50a2.88,2.88,0,0,1-.83,1.63L43.93,54A1,1,0,0,0,43.64,54.92Zm-30-10-2.42-2.36a2.84,2.84,0,0,1,1.57-4.84l3.35-.49a1,1,0,0,0,.76-.56l1.5-3A2.88,2.88,0,0,1,21,32.05a2.82,2.82,0,0,1,2.55,1.58l1.49,3a1,1,0,0,0,.77.56l3.34.48a2.85,2.85,0,0,1,2.4,3.23,2.87,2.87,0,0,1-.82,1.62l-2.28,2.22-.16,0a4.89,4.89,0,0,0-4.22,5.53,4.65,4.65,0,0,0,.16.72l.35,1.15-3.11-1.63a1,1,0,0,0-.95,0l-3,1.57a2.84,2.84,0,0,1-1.32.33,3.07,3.07,0,0,1-.85-.13,2.85,2.85,0,0,1-1.67-1.39,2.81,2.81,0,0,1-.28-1.8L14,45.8A1,1,0,0,0,13.68,44.9Zm15.5-13,2,2-.37,2.21-.56-.19a5.06,5.06,0,0,0-.85-.22l-2.8-.4-1.27-2.54a4.85,4.85,0,0,0-3.62-2.67l-.32,0-.09-.31A8.46,8.46,0,0,1,21,27.66v-2h2A8.09,8.09,0,0,1,27.57,27l.27.19-.06.32A4.79,4.79,0,0,0,29.18,31.89ZM47.34,33.7,47.91,37a2.85,2.85,0,0,1-2.33,3.27,2.49,2.49,0,0,1-.47,0A2.82,2.82,0,0,1,43.8,40l-3-1.57a1,1,0,0,0-1,0l-1.73.91-.19-.06a5.29,5.29,0,0,0-1.31-.17,4.86,4.86,0,0,0-2.41.64l-.59.33-.15-.66a3.12,3.12,0,0,0-.1-.43,5.14,5.14,0,0,0-.57-1.18l-.07-.1V37.6a3.35,3.35,0,0,1,0-.55l.58-3.35a1.06,1.06,0,0,0-.3-.91L30.6,30.44a2.8,2.8,0,0,1-.86-2,2.83,2.83,0,0,1,2.43-2.84l3.34-.49a1,1,0,0,0,.77-.56l1.5-3a2.78,2.78,0,0,1,1.63-1.43,2.87,2.87,0,0,1,2.17.14,2.93,2.93,0,0,1,1.29,1.29l1.49,3a1,1,0,0,0,.77.56l3.35.48a2.8,2.8,0,0,1,1.86,1.12,2.77,2.77,0,0,1,.54,2.1,2.91,2.91,0,0,1-.83,1.63l-2.42,2.35A1,1,0,0,0,47.34,33.7ZM18,58a8,8,0,0,1,1.08-4,1,1,0,0,0,.1-.24l.05-.22L21,52.61l2.52,1.32a4.61,4.61,0,0,0,3,.51l.25,0,.71.69-.15.32A8.06,8.06,0,0,1,20,60.06H18ZM45.07,44.79l-2.82-.4-1.91-3.88,2.5,1.31a4.82,4.82,0,0,0,5.88-1l.29-.33.36.24a8.24,8.24,0,0,1,1.21,1L52,43.11l-1.43,1.42a8.08,8.08,0,0,1-2.34,1.63l-.3.14-.25-.24A4.9,4.9,0,0,0,45.07,44.79ZM2.24,54.5H16.57l-.19.65A10.11,10.11,0,0,0,16,58v3a1,1,0,0,0,1,1h3a10.11,10.11,0,0,0,6.35-2.25l.58-.47.21.72a4.88,4.88,0,0,0,7,3l2.51-1.33,2.51,1.33a4.88,4.88,0,0,0,7.08-5.15l-.48-2.8.63-.61H60.59L57,73.74H47.5l-.12-.33a4.08,4.08,0,0,0-3.81-2.71h-3a4.08,4.08,0,0,0-3.81,2.71l-.11.33H5.81ZM45.59,74.76v6.08a2,2,0,0,1-2,2h-3a2,2,0,0,1-2-2V74.76a2,2,0,0,1,2-2h3A2,2,0,0,1,45.59,74.76Zm-39.4,1H36.47v4H6.93Zm1.12,6.08h29.3l.11.33a4.07,4.07,0,0,0,.82,1.37l.27.29L35.4,87.46l1.7,1.13,2.54-3.81.32.06a5.61,5.61,0,0,0,.59.06h3l.58-.06.32-.06L47,88.59l1.7-1.13-2.4-3.61.26-.29a4.07,4.07,0,0,0,.82-1.37l.12-.33h8L53.36,93.5H9.47Z"></path> <path d="M40.43,26.63a4.06,4.06,0,0,0-.5,8.09V32.65a2,2,0,1,1,2.46-2.46h2.07A4.06,4.06,0,0,0,40.43,26.63Z"></path> </svg> 